<?xml version="1.0" encoding="UTF-8"?>
<svg xmlns="http://www.w3.org/2000/svg" xmlns:xlink="http://www.w3.org/1999/xlink" viewBox="0 0 1283.97 429.9">
  <defs>
    <style>
      .cls-1 {
        fill: url(#radial-gradient-3);
      }

      .cls-1, .cls-2, .cls-3 {
        mix-blend-mode: screen;
      }

      .cls-2 {
        fill: url(#radial-gradient-2);
      }

      .cls-4 {
        fill: url(#linear-gradient-2);
      }

      .cls-5 {
        fill: #d0df94;
      }

      .cls-6 {
        fill: url(#linear-gradient);
      }

      .cls-7 {
        isolation: isolate;
      }

      .cls-3 {
        fill: url(#radial-gradient);
      }

      .cls-8 {
        fill: #7eba28;
      }

      .cls-9 {
        fill: #fff;
      }
    </style>
    <linearGradient id="linear-gradient" x1="39.41" y1="472.04" x2="335.21" y2="21.28" gradientUnits="userSpaceOnUse">
      <stop offset="0" stop-color="#003339"/>
      <stop offset=".15" stop-color="#046038"/>
      <stop offset=".29" stop-color="#088538"/>
      <stop offset=".41" stop-color="#0a9c38"/>
      <stop offset=".48" stop-color="#0ba538"/>
      <stop offset=".6" stop-color="#1fa835"/>
      <stop offset=".83" stop-color="#54b22d"/>
      <stop offset="1" stop-color="#7eba28"/>
    </linearGradient>
    <radialGradient id="radial-gradient" cx="157.99" cy="225.72" fx="157.99" fy="225.72" r="154.92" gradientUnits="userSpaceOnUse">
      <stop offset="0" stop-color="#fff"/>
      <stop offset=".45" stop-color="#8d8d8d"/>
      <stop offset="1" stop-color="#010101"/>
    </radialGradient>
    <linearGradient id="linear-gradient-2" x1="938.4" y1="-637.05" x2="938.4" y2="-115.78" gradientTransform="translate(-467.63 709.67) rotate(-6.97)" gradientUnits="userSpaceOnUse">
      <stop offset="0" stop-color="#7eba28"/>
      <stop offset=".17" stop-color="#54b22d"/>
      <stop offset=".4" stop-color="#1fa835"/>
      <stop offset=".52" stop-color="#0ba538"/>
      <stop offset=".59" stop-color="#0a9c38"/>
      <stop offset=".71" stop-color="#088538"/>
      <stop offset=".85" stop-color="#046038"/>
      <stop offset="1" stop-color="#003339"/>
    </linearGradient>
    <radialGradient id="radial-gradient-2" cx="63.94" cy="55.03" fx="63.94" fy="55.03" r="297.13" gradientUnits="userSpaceOnUse">
      <stop offset="0" stop-color="#fff"/>
      <stop offset=".45" stop-color="#8d8d8d"/>
      <stop offset="1" stop-color="#010101"/>
    </radialGradient>
    <radialGradient id="radial-gradient-3" cx="885.46" cy="-225.69" fx="885.46" fy="-225.69" r="259.45" gradientTransform="translate(-467.63 709.67) rotate(-6.97)" gradientUnits="userSpaceOnUse">
      <stop offset="0" stop-color="#4dae38"/>
      <stop offset=".65" stop-color="#1c3e14"/>
      <stop offset="1" stop-color="#010101"/>
    </radialGradient>
  </defs>
  <g class="cls-7">
    <g id="Camada_2" data-name="Camada 2">
      <g id="Camada_1-2" data-name="Camada 1">
        <g>
          <g>
            <path class="cls-8" d="M669.3,320.12h-26.68l-4.24-11.4h-45.11l-4.49,11.4h-26.68l35.17-84.88h38.08l33.95,84.88ZM614.37,255.01l-13.46,34.32h30.19l-12.85-34.32h-3.88Z"/>
            <path class="cls-8" d="M721.56,249.19h2.18c11.72,0,20.31,2.69,25.77,8.06,5.46,5.38,8.19,14.85,8.19,28.44v34.56h-23.65v-34.56c0-5.98-1.01-10.21-3.03-12.67-2.02-2.46-6.1-3.7-12.25-3.7h-8c-6.23,0-10.35,1.23-12.37,3.7-2.02,2.47-3.03,6.69-3.03,12.67v34.44h-23.65v-69.24h21.22v11.64c5.01-8.89,14.55-13.34,28.62-13.34Z"/>
            <path class="cls-8" d="M817.24,291.38h23.04c0,10.19-2.87,17.83-8.61,22.92-5.74,5.09-14.03,7.64-24.86,7.64h-1.58c-10.67,0-18.72-2.36-24.13-7.09-5.42-4.73-8.12-12.67-8.12-23.83v-22.55h-9.22v-17.58h9.22v-15.64h23.65v15.64h41.23v17.58h-41.23v22.55c0,7.52,3.35,11.28,10.06,11.28h.73c3.4,0,5.88-.83,7.46-2.49,1.58-1.66,2.36-4.47,2.36-8.43Z"/>
            <path class="cls-8" d="M897.27,321.94h-14.91c-12.85,0-22.05-2.65-27.59-7.94-5.54-5.29-8.31-14.77-8.31-28.44s2.79-23.16,8.37-28.5c5.58-5.34,14.75-8,27.53-8h14.91c12.77,0,21.95,2.67,27.53,8,5.58,5.34,8.37,14.84,8.37,28.5s-2.77,23.14-8.31,28.44c-5.54,5.3-14.73,7.94-27.59,7.94ZM884.9,301.69h9.82c6.22,0,10.35-1.21,12.37-3.64,2.02-2.43,3.03-6.59,3.03-12.49s-1.01-10.2-3.03-12.67c-2.02-2.47-6.14-3.7-12.37-3.7h-9.82c-6.23,0-10.35,1.23-12.37,3.7-2.02,2.47-3.03,6.69-3.03,12.67s1.01,10.06,3.03,12.49c2.02,2.43,6.14,3.64,12.37,3.64Z"/>
            <path class="cls-8" d="M991.49,249.19h2.18c11.72,0,20.31,2.69,25.77,8.06,5.46,5.38,8.18,14.85,8.18,28.44v34.56h-23.65v-34.56c0-5.98-1.01-10.21-3.03-12.67-2.02-2.46-6.1-3.7-12.25-3.7h-8c-6.23,0-10.35,1.23-12.37,3.7-2.02,2.47-3.03,6.69-3.03,12.67v34.44h-23.65v-69.24h21.22v11.64c5.01-8.89,14.55-13.34,28.62-13.34Z"/>
            <path class="cls-8" d="M1122.81,279.14v12.85h-63.3c.56,3.64,1.96,6.27,4.18,7.88,2.22,1.62,5.84,2.43,10.85,2.43h12.61c2.5,0,4.63-.22,6.37-.67,1.74-.44,3.03-1.01,3.88-1.7.85-.69,1.43-1.33,1.76-1.94.32-.61.48-1.19.48-1.76h23.16c0,8.89-2.95,15.4-8.85,19.52-5.9,4.12-14.92,6.18-27.04,6.18h-14.91c-12.85,0-22.05-2.65-27.59-7.94-5.54-5.29-8.31-14.77-8.31-28.44s2.79-23.16,8.37-28.5c5.58-5.34,14.75-8,27.53-8h14.91c12.29,0,21.34,2.3,27.16,6.91,5.82,4.61,8.73,12.33,8.73,23.16ZM1059.51,279.14h40.14c0-3.48-1.11-6.1-3.33-7.88-2.22-1.78-6.08-2.67-11.58-2.67h-10.19c-5.01,0-8.63.83-10.85,2.49-2.22,1.66-3.62,4.35-4.18,8.06Z"/>
            <path class="cls-8" d="M1154.95,320.12h-23.65v-90.95h23.65v90.95Z"/>
            <path class="cls-8" d="M1188.29,320.12h-23.65v-90.95h23.65v90.95Z"/>
            <path class="cls-8" d="M1260.32,282.41v-31.53h23.65v60.02c0,6.63-.69,12.13-2.06,16.49-1.38,4.37-3.54,7.78-6.49,10.25-2.95,2.47-6.43,4.18-10.43,5.15-4,.97-8.99,1.46-14.98,1.46h-44.26v-20.13h44.26c4.04,0,6.77-.79,8.18-2.36,1.41-1.58,2.12-4.38,2.12-8.43v-4.73c-5.18,6.06-13.91,9.09-26.19,9.09h-2.18c-11.88,0-20.51-2.5-25.89-7.52-5.38-5.01-8.06-14.27-8.06-27.77v-31.53h23.65v31.53c0,5.98,1.01,10.21,3.03,12.67,2.02,2.47,6.1,3.7,12.25,3.7h8c6.22,0,10.35-1.23,12.37-3.7,2.02-2.46,3.03-6.69,3.03-12.67Z"/>
          </g>
          <g>
            <path class="cls-9" d="M590.1,375.94h3.96c-.03,3.99-1.15,6.87-3.36,8.62-2.21,1.75-5.64,2.63-10.27,2.63h-4.69c-4.84,0-8.32-1.03-10.44-3.09-2.13-2.06-3.19-5.7-3.19-10.92s1.06-8.86,3.19-10.92c2.12-2.06,5.61-3.09,10.44-3.09h4.69c4.63,0,8.06.87,10.27,2.61,2.21,1.74,3.32,4.6,3.32,8.56h-3.95c.03-2.64-.73-4.56-2.27-5.76-1.54-1.2-3.99-1.8-7.37-1.8h-4.69c-3.61,0-6.13.76-7.56,2.28-1.43,1.52-2.15,4.23-2.15,8.12s.72,6.6,2.15,8.12c1.43,1.52,3.96,2.28,7.56,2.28h4.69c3.4,0,5.87-.61,7.39-1.82,1.52-1.22,2.28-3.15,2.28-5.82Z"/>
            <path class="cls-9" d="M609.99,359.16h4.15c4.91,0,8.44,1.03,10.58,3.09,2.14,2.06,3.21,5.7,3.21,10.92s-1.07,8.86-3.21,10.92c-2.14,2.06-5.66,3.09-10.58,3.09h-4.15c-4.92,0-8.44-1.03-10.58-3.09-2.14-2.06-3.21-5.7-3.21-10.92s1.07-8.86,3.21-10.92c2.14-2.06,5.66-3.09,10.58-3.09ZM609.99,383.58h4.15c3.71,0,6.28-.76,7.7-2.28,1.42-1.52,2.13-4.23,2.13-8.12s-.71-6.6-2.13-8.12c-1.42-1.52-3.99-2.28-7.7-2.28h-4.15c-3.71,0-6.28.76-7.7,2.28-1.42,1.52-2.13,4.23-2.13,8.12s.71,6.6,2.13,8.12c1.42,1.52,3.99,2.28,7.7,2.28Z"/>
            <path class="cls-9" d="M656.3,383.54l-.15-23.81h4.03v26.88h-5.91l-19.31-23.81.15,23.81h-4.03v-26.88h5.91l19.31,23.81Z"/>
            <path class="cls-9" d="M676.23,371.53h6.26c4.74,0,8.15.58,10.23,1.73,2.09,1.15,3.13,3.09,3.13,5.8s-1.08,4.68-3.24,6.07c-2.16,1.38-5.63,2.07-10.39,2.07h-4.91c-4.74,0-8.25-.79-10.54-2.36-2.29-1.57-3.44-4-3.44-7.28h3.92c0,4.17,3.16,6.26,9.49,6.26h6.41c3.07,0,5.29-.39,6.64-1.17,1.36-.78,2.04-1.95,2.04-3.51s-.63-2.59-1.88-3.24c-1.25-.65-3.37-.98-6.34-.98h-6.64c-4.86-.03-8.29-.61-10.27-1.75-1.98-1.14-2.98-3.05-2.98-5.74,0-2.97,1.2-5.09,3.59-6.36,2.39-1.27,5.74-1.9,10.04-1.9h4.15c4.74,0,8.25.79,10.54,2.36,2.29,1.57,3.44,4,3.44,7.28h-3.96c0-4.17-3.1-6.26-9.29-6.26h-5.61c-5.99,0-8.99,1.61-8.99,4.84,0,1.48.63,2.55,1.88,3.19,1.25.64,3.5.96,6.72.96Z"/>
            <path class="cls-9" d="M697.01,359.74h24.96v3.26h-10.44v23.62h-4.07v-23.62h-10.45v-3.26Z"/>
            <path class="cls-9" d="M746.66,375.56c2,.23,3.44.78,4.34,1.65.9.87,1.34,2.23,1.34,4.07v5.34h-4.11v-5.15c0-1.64-.45-2.73-1.36-3.28-.91-.55-2.58-.83-5.01-.83h-13.9v9.25h-4.03v-26.88h18.89c3.25,0,5.59.67,7.01,2.02,1.42,1.34,2.13,3.69,2.13,7.05,0,2.15-.42,3.74-1.25,4.78-.83,1.04-2.18,1.7-4.05,1.98ZM741.82,363.23h-13.86v10.83h13.13c2.61,0,4.39-.33,5.34-1,.95-.67,1.42-1.96,1.42-3.88,0-2.25-.45-3.81-1.36-4.67-.91-.86-2.46-1.29-4.67-1.29Z"/>
            <path class="cls-9" d="M771.77,387.19h-3.46c-4.56,0-7.87-1.04-9.93-3.11-2.06-2.07-3.09-5.71-3.09-10.91v-13.44h4.03v13.44c0,3.87.69,6.57,2.07,8.1,1.38,1.54,3.74,2.3,7.07,2.3h3.19c3.33,0,5.68-.77,7.05-2.3,1.37-1.54,2.05-4.24,2.05-8.1v-13.44h4.07v13.44c0,5.2-1.03,8.83-3.09,10.91-2.06,2.07-5.38,3.11-9.96,3.11Z"/>
            <path class="cls-9" d="M815.93,375.94h3.96c-.03,3.99-1.15,6.87-3.36,8.62-2.21,1.75-5.64,2.63-10.27,2.63h-.15l-1.96,4.3h-3.07l1.88-4.3h-1.38c-4.84,0-8.32-1.03-10.45-3.09-2.13-2.06-3.19-5.7-3.19-10.92s1.06-8.86,3.19-10.92c2.13-2.06,5.61-3.09,10.45-3.09h4.68c4.63,0,8.06.87,10.27,2.61,2.21,1.74,3.32,4.6,3.32,8.56h-3.96c.03-2.64-.73-4.56-2.27-5.76-1.54-1.2-3.99-1.8-7.37-1.8h-4.68c-3.61,0-6.13.76-7.56,2.28-1.43,1.52-2.15,4.23-2.15,8.12s.72,6.6,2.15,8.12c1.43,1.52,3.95,2.28,7.56,2.28h4.68c3.4,0,5.87-.61,7.39-1.82,1.52-1.22,2.28-3.15,2.28-5.82Z"/>
            <path class="cls-9" d="M835.82,359.16h4.15c4.91,0,8.44,1.03,10.58,3.09,2.14,2.06,3.21,5.7,3.21,10.92s-1.07,8.86-3.21,10.92c-2.14,2.06-5.66,3.09-10.58,3.09h-4.15c-4.92,0-8.44-1.03-10.58-3.09-2.14-2.06-3.21-5.7-3.21-10.92s1.07-8.86,3.21-10.92c2.14-2.06,5.66-3.09,10.58-3.09ZM835.82,383.58h4.15c3.71,0,6.28-.76,7.7-2.28,1.42-1.52,2.13-4.23,2.13-8.12s-.71-6.6-2.13-8.12c-1.42-1.52-3.99-2.28-7.7-2.28h-4.15c-3.71,0-6.28.76-7.7,2.28-1.42,1.52-2.13,4.23-2.13,8.12s.71,6.6,2.13,8.12c1.42,1.52,3.99,2.28,7.7,2.28ZM842.04,357.2c-1.25,0-2.69-.36-4.32-1.09-1.63-.73-2.81-1.09-3.55-1.09-.69,0-1.24.19-1.63.56-.4.37-.61.86-.63,1.48h-2.61c.23-3.15,1.66-4.72,4.3-4.72,1.05,0,2.4.36,4.05,1.09,1.65.73,2.94,1.09,3.86,1.09,1.48,0,2.27-.67,2.34-2h2.61c-.13,1.64-.56,2.83-1.29,3.57-.73.74-1.77,1.11-3.13,1.11Z"/>
            <path class="cls-9" d="M882.21,359.74v3.61h-21.27v8.26h17.82v3.11h-17.82v8.29h21.66v3.61h-25.69v-26.88h25.31Z"/>
            <path class="cls-9" d="M897.45,371.53h6.26c4.74,0,8.15.58,10.23,1.73,2.09,1.15,3.13,3.09,3.13,5.8s-1.08,4.68-3.24,6.07c-2.16,1.38-5.63,2.07-10.39,2.07h-4.91c-4.74,0-8.25-.79-10.54-2.36-2.29-1.57-3.44-4-3.44-7.28h3.92c0,4.17,3.16,6.26,9.49,6.26h6.41c3.07,0,5.29-.39,6.64-1.17,1.36-.78,2.04-1.95,2.04-3.51s-.63-2.59-1.88-3.24c-1.25-.65-3.37-.98-6.34-.98h-6.64c-4.86-.03-8.29-.61-10.27-1.75-1.98-1.14-2.98-3.05-2.98-5.74,0-2.97,1.2-5.09,3.59-6.36,2.39-1.27,5.74-1.9,10.04-1.9h4.15c4.74,0,8.25.79,10.54,2.36,2.29,1.57,3.44,4,3.44,7.28h-3.96c0-4.17-3.1-6.26-9.29-6.26h-5.61c-5.99,0-8.99,1.61-8.99,4.84,0,1.48.63,2.55,1.88,3.19,1.25.64,3.49.96,6.72.96Z"/>
            <path class="cls-9" d="M957.01,359.74v3.61h-21.27v8.26h17.82v3.11h-17.82v8.29h21.66v3.61h-25.69v-26.88h25.31Z"/>
            <path class="cls-9" d="M983.77,371.53h6.26c4.74,0,8.15.58,10.23,1.73,2.09,1.15,3.13,3.09,3.13,5.8s-1.08,4.68-3.24,6.07c-2.16,1.38-5.63,2.07-10.39,2.07h-4.91c-4.74,0-8.25-.79-10.54-2.36-2.29-1.57-3.44-4-3.44-7.28h3.92c0,4.17,3.16,6.26,9.49,6.26h6.41c3.07,0,5.29-.39,6.64-1.17,1.36-.78,2.04-1.95,2.04-3.51s-.63-2.59-1.88-3.24c-1.25-.65-3.37-.98-6.34-.98h-6.64c-4.86-.03-8.29-.61-10.27-1.75-1.98-1.14-2.98-3.05-2.98-5.74,0-2.97,1.2-5.09,3.59-6.36,2.39-1.27,5.74-1.9,10.04-1.9h4.15c4.74,0,8.25.79,10.54,2.36,2.29,1.57,3.44,4,3.44,7.28h-3.96c0-4.17-3.1-6.26-9.29-6.26h-5.61c-5.99,0-8.99,1.61-8.99,4.84,0,1.48.63,2.55,1.88,3.19,1.25.64,3.5.96,6.72.96Z"/>
            <path class="cls-9" d="M1031.81,359.74v3.61h-21.27v8.26h17.82v3.11h-17.82v8.29h21.66v3.61h-25.69v-26.88h25.31Z"/>
            <path class="cls-9" d="M1057.65,375.56c2,.23,3.44.78,4.34,1.65.9.87,1.34,2.23,1.34,4.07v5.34h-4.11v-5.15c0-1.64-.45-2.73-1.36-3.28-.91-.55-2.58-.83-5.01-.83h-13.9v9.25h-4.03v-26.88h18.89c3.25,0,5.59.67,7.01,2.02,1.42,1.34,2.13,3.69,2.13,7.05,0,2.15-.42,3.74-1.25,4.78-.83,1.04-2.18,1.7-4.05,1.98ZM1052.81,363.23h-13.86v10.83h13.13c2.61,0,4.39-.33,5.34-1,.95-.67,1.42-1.96,1.42-3.88,0-2.25-.46-3.81-1.36-4.67-.91-.86-2.46-1.29-4.67-1.29Z"/>
            <path class="cls-9" d="M1078.54,384.08l11.1-24.35h4.26l-12.44,26.88h-5.84l-12.44-26.88h4.26l11.1,24.35Z"/>
            <path class="cls-9" d="M1099.89,386.62h-4.03v-26.88h4.03v26.88Z"/>
            <path class="cls-9" d="M1131.03,375.94h3.96c-.03,3.99-1.15,6.87-3.36,8.62-2.21,1.75-5.64,2.63-10.27,2.63h-.15l-1.96,4.3h-3.07l1.88-4.3h-1.38c-4.84,0-8.32-1.03-10.44-3.09-2.13-2.06-3.19-5.7-3.19-10.92s1.06-8.86,3.19-10.92c2.12-2.06,5.61-3.09,10.44-3.09h4.69c4.63,0,8.06.87,10.27,2.61,2.21,1.74,3.32,4.6,3.32,8.56h-3.95c.03-2.64-.73-4.56-2.27-5.76-1.54-1.2-3.99-1.8-7.37-1.8h-4.69c-3.61,0-6.13.76-7.56,2.28-1.43,1.52-2.15,4.23-2.15,8.12s.72,6.6,2.15,8.12c1.43,1.52,3.96,2.28,7.56,2.28h4.69c3.4,0,5.87-.61,7.39-1.82,1.52-1.22,2.28-3.15,2.28-5.82Z"/>
            <path class="cls-9" d="M1150.93,359.16h4.15c4.92,0,8.44,1.03,10.58,3.09,2.14,2.06,3.21,5.7,3.21,10.92s-1.07,8.86-3.21,10.92c-2.14,2.06-5.66,3.09-10.58,3.09h-4.15c-4.91,0-8.44-1.03-10.58-3.09-2.14-2.06-3.21-5.7-3.21-10.92s1.07-8.86,3.21-10.92c2.14-2.06,5.66-3.09,10.58-3.09ZM1150.93,383.58h4.15c3.71,0,6.28-.76,7.7-2.28,1.42-1.52,2.13-4.23,2.13-8.12s-.71-6.6-2.13-8.12c-1.42-1.52-3.99-2.28-7.7-2.28h-4.15c-3.71,0-6.28.76-7.7,2.28-1.42,1.52-2.13,4.23-2.13,8.12s.71,6.6,2.13,8.12c1.42,1.52,3.99,2.28,7.7,2.28Z"/>
            <path class="cls-9" d="M1184.14,371.53h6.26c4.74,0,8.15.58,10.23,1.73,2.09,1.15,3.13,3.09,3.13,5.8s-1.08,4.68-3.24,6.07c-2.16,1.38-5.63,2.07-10.39,2.07h-4.91c-4.74,0-8.25-.79-10.54-2.36-2.29-1.57-3.44-4-3.44-7.28h3.92c0,4.17,3.16,6.26,9.49,6.26h6.41c3.07,0,5.29-.39,6.64-1.17,1.36-.78,2.04-1.95,2.04-3.51s-.63-2.59-1.88-3.24c-1.25-.65-3.37-.98-6.34-.98h-6.64c-4.86-.03-8.29-.61-10.27-1.75-1.98-1.14-2.98-3.05-2.98-5.74,0-2.97,1.2-5.09,3.59-6.36,2.39-1.27,5.74-1.9,10.04-1.9h4.15c4.74,0,8.25.79,10.54,2.36,2.29,1.57,3.44,4,3.44,7.28h-3.96c0-4.17-3.1-6.26-9.29-6.26h-5.61c-5.99,0-8.99,1.61-8.99,4.84,0,1.48.63,2.55,1.88,3.19,1.25.64,3.5.96,6.72.96Z"/>
          </g>
          <g>
            <path class="cls-6" d="M327.23,154.2c-29.33-.47-46.25,25.89-55.66,41.03l-66.61,106.98-28.75,46.16-10.08,16.18-40.64,65.26H0l50.73-81.44L224.64,69.1C244.58,37.1,274.17,13.12,308.33,0l17.53,142.99,1.37,11.21Z"/>
            <path class="cls-3" d="M327.23,154.2c-29.33-.47-46.25,25.89-55.66,41.03l-66.61,106.98-28.75,46.16-10.08,16.18-40.64,65.26h-9.98s117.07-182.5,142.58-228.26c13.42-24.09,26.01-38.99,38.39-47.38,15.5-10.49,29.38-11.18,29.38-11.18l1.37,11.21Z"/>
            <path class="cls-4" d="M391.18,0c43.25,0,67.45,22.4,71.77,57.72l33.95,277.73c5.74,46.96-26.9,88.61-73.86,94.35h-44.4L327.22,0h63.96Z"/>
            <path class="cls-2" d="M290.66,19.56c-7.96,4.81-15.8,9.84-23.03,15.78-13.52,11.11-25.07,24.28-34.32,39.15L59.39,353.76l-47.37,76.05-.06.1h46.64l.06-.1h56.84c-17.04-1.3-30.47-15.53-30.47-32.91,0-6.14,1.68-11.88,4.6-16.81,0,0,0,0,0,0l.77-1.24s0,0,0,0l12.25-19.66,10.08-16.19,28.75-46.16,121.42-195.01c6.96-11.18,15.92-21.05,25.87-29.71,9.22-8.03,27-11.32,27-11.32l-6.02-49.08s-11.99,3.57-19.1,7.87Z"/>
            <path class="cls-1" d="M391.18,1.59c35.32-4.32,67.45,20.81,71.77,56.14l33.95,277.73c5.74,46.96-26.9,88.61-73.86,94.35h-44.4c66.9-8.18,53.27-95.01,53.27-95.01L391.18,1.59h0Z"/>
            <path class="cls-5" d="M379.39,429.81c51.06-6.21,57.31-66.82,50.3-107.93-9.4-73.89-18.6-149.27-25.88-223.3,10.77,73.57,19.99,148.96,28.67,222.91,6.54,41.63-.96,103.65-53.09,108.31h0Z"/>
          </g>
        </g>
      </g>
    </g>
  </g>
</svg>